#!OML:ASF H:\Pregnant\Project 1\Capture day 1\Session 1\femalepreg.ASF
:FULLY-SPECIFIED
:DEGREES
297
root -9.33632 15.7568 -11.7463 -161.901 -0.422515 178.035
lowerback -12.7884 -1.61404 3.35748
upperback -6.08305 -3.6285 4.80805
thorax 0.904695 -2.23944 2.63044
lowerneck -18.1592 -6.49703 1.51653
upperneck 26.8294 -8.18432 -2.21981
head 11.5849 -3.43515 -2.2242
rclavicle 2.3556e-014 2.06736e-014
rhumerus -43.017 -0.457287 -67.4074
rradius 18.183
rwrist 3.70998
rhand -14.7707 -26.4153
rfingers 7.12502
rthumb 11.3859 -56.0861
lclavicle 2.3556e-014 2.06736e-014
lhumerus -43.8818 -13.2803 87.0012
lradius 36.5823
lwrist 25.4132
lhand -28.8442 -4.2296
lfingers 7.12502
lthumb -2.20123 25.7388
rfemur -48.4212 10.8208 22.7931
rtibia 45.6766
rfoot -11.1777 -9.12406
rtoes -6.02973
lfemur -24.3761 -5.8179 -21.3368
ltibia 56.9375
lfoot 8.87601 -18.3259
ltoes -25.5977
298
root -9.33032 15.7745 -11.9155 -161.787 -0.0725142 177.868
lowerback -12.9945 -1.67159 3.64442
upperback -6.14096 -3.77668 4.84486
thorax 0.94392 -2.32905 2.48106
lowerneck -18.0841 -6.4098 1.75727
upperneck 26.9935 -8.0804 -2.34407
head 11.6166 -3.36845 -2.2938
rclavicle -3.18055e-014 -4.77083e-015
rhumerus -41.7472 1.37719 -69.6637
rradius 19.1681
rwrist 3.18327
rhand -15.8966 -25.7987
rfingers 7.12502
rthumb 10.2999 -55.5265
lclavicle -3.18055e-014 -4.77083e-015
lhumerus -45.0981 -11.8351 85.9502
lradius 34.0607
lwrist 26.7447
lhand -29.8357 -3.99644
lfingers 7.12502
lthumb -3.15878 25.9599
rfemur -47.8765 10.8386 22.7738
rtibia 45.7408
rfoot -11.8032 -9.06735
rtoes -5.96644
lfemur -26.1744 -5.57057 -21.5015
ltibia 58.8021
lfoot 7.55856 -17.3776
ltoes -26.8831
299
root -9.3245 15.7916 -12.0823 -161.707 0.280851 177.809
lowerback -13.1554 -1.69017 4.04194
upperback -6.18135 -3.8835 4.87208
thorax 0.967564 -2.39938 2.267
lowerneck -18.0107 -6.34928 1.92738
upperneck 27.206 -8.00662 -2.40325
head 11.6741 -3.31002 -2.33429
rclavicle 3.53837e-014 1.59028e-014
rhumerus -40.6517 3.28018 -71.8933
rradius 20.39
rwrist 2.5108
rhand -17.06 -25.1618
rfingers 7.12502
rthumb 9.17744 -54.9421
lclavicle 3.53837e-014 1.59028e-014
lhumerus -46.2099 -10.457 84.7832
lradius 31.4575
lwrist 28.314
lhand -30.4026 -3.47911
lfingers 7.12502
lthumb -3.70628 26.4684
rfemur -47.2431 10.9234 22.8479
rtibia 45.699
rfoot -12.3716 -9.02353
rtoes -5.86767
lfemur -27.9877 -5.3277 -21.5633
ltibia 60.5832
lfoot 6.13587 -16.118
ltoes -28.3824
300
root -9.31875 15.8075 -12.2461 -161.665 0.66641 177.846
lowerback -13.2662 -2.97156 4.82359
upperback -6.09296 -3.63936 5.00116
thorax 1.00851 -1.4049 2.0164
lowerneck -17.9514 -6.31836 2.01922
upperneck 27.449 -7.96657 -2.40133
head 11.7529 -3.26435 -2.3463
rclavicle -3.926e-014 -1.74931e-014
rhumerus -39.7086 5.17877 -74.0251
rradius 21.8236
rwrist 1.76319
rhand -18.2156 -24.4886
rfingers 7.12502
rthumb 8.06224 -54.3148
lclavicle -3.926e-014 -1.74931e-014
lhumerus -47.206 -9.0893 83.4702
lradius 28.7947
lwrist 29.9524
lhand -30.5087 -2.63563
lfingers 7.12502
lthumb -3.80873 27.3101
rfemur -46.5373 11.0946 22.9986
rtibia 45.566
rfoot -12.877 -8.97976
rtoes -5.76469
lfemur -29.7881 -5.07941 -21.5338
ltibia 62.2523
lfoot 4.65227 -14.6441
ltoes -30.0804
301
root -9.3126 15.8223 -12.4071 -161.646 1.1092 177.945
lowerback -13.2885 -2.93414 5.32205
upperback -6.10699 -3.63799 5.02887
thorax 0.96961 -1.40788 1.76892
lowerneck -17.9176 -6.32498 2.02415
upperneck 27.7261 -7.96416 -2.35883
head 11.856 -3.23696 -2.33694
rclavicle -9.93923e-017 -1.59028e-015
rhumerus -38.9149 7.039 -76.0215
rradius 23.4554
rwrist 0.953998
rhand -19.2862 -23.8101
rfingers 7.12502
rthumb 7.02887 -53.6734
lclavicle -9.93923e-017 -1.59028e-015
lhumerus -48.1154 -7.65977 81.9649
lradius 26.0956
lwrist 31.446
lhand -30.2158 -1.6245
lfingers 7.12502
lthumb -3.52591 28.3261
rfemur -45.7863 11.3569 23.1884
rtibia 45.3677
rfoot -13.3193 -8.92542
rtoes -5.69661
lfemur -31.5556 -4.82555 -21.445
ltibia 63.7725
lfoot 3.18613 -13.0592
ltoes -31.6077
302
root -9.30551 15.836 -12.5652 -161.638 1.62568 178.074
lowerback -13.2529 -2.86551 5.78425
upperback -6.11099 -3.58999 5.05629
thorax 0.913133 -1.38905 1.54987
lowerneck -17.9202 -6.35855 1.96966
upperneck 28.0163 -7.98959 -2.29792
head 11.9753 -3.22548 -2.31723
rclavicle 3.6477e-014 2.06736e-014
rhumerus -38.2286 8.85539 -77.881
rradius 25.2657
rwrist 0.0438236
rhand -20.23 -23.1324
rfingers 7.12502
rthumb 6.11779 -53.0241
lclavicle 3.6477e-014 2.06736e-014
lhumerus -48.936 -6.0852 80.1837
lradius 23.4004
lwrist 32.5728
lhand -29.6123 -0.612497
lfingers 7.12502
lthumb -2.94303 29.3469
rfemur -45.0213 11.7131 23.3794
rtibia 45.1309
rfoot -13.7048 -8.85863
rtoes -5.65396
lfemur -33.2783 -4.56261 -21.3256
ltibia 65.1058
lfoot 1.90051 -11.4828
ltoes -32.4254
303
root -9.29717 15.8489 -12.7211 -161.634 2.22733 178.202
lowerback -13.1713 -2.77224 6.16616
upperback -6.10533 -3.50012 5.08364
thorax 0.84936 -1.35018 1.3823
lowerneck -17.9586 -6.41743 1.8653
upperneck 28.3026 -8.04018 -2.23565
head 12.1031 -3.23143 -2.29419
rclavicle 5.56597e-015 0
rhumerus -37.6156 10.6064 -79.5835
rradius 27.2157
rwrist -0.970567
rhand -21.0512 -22.276
rfingers 7.12502
rthumb 5.32488 -52.1891
lclavicle 5.56597e-015 0
lhumerus -49.7004 -4.27022 78.0217
lradius 20.7942
lwrist 33.0738
lhand -28.7918 0.422106
lfingers 7.12502
lthumb -2.1506 30.391
rfemur -44.2626 12.1615 23.5395
rtibia 44.8822
rfoot -14.0483 -8.77989
rtoes -5.67543
lfemur -34.9357 -4.28712 -21.2048
ltibia 66.218
lfoot 0.797734 -9.9824
ltoes -32.5649
304
root -9.2875 15.8621 -12.8763 -161.635 2.91575 178.299
lowerback -13.056 -2.65928 6.44021
upperback -6.08984 -3.3738 5.10229
thorax 0.787072 -1.29391 1.2707
lowerneck -18.0331 -6.49663 1.73595
upperneck 28.5764 -8.11158 -2.19161
head 12.2339 -3.25368 -2.27836
rclavicle 3.21534e-014 3.81667e-014
rhumerus -37.0588 12.2984 -81.1408
rradius 29.289
rwrist -2.13221
rhand -21.6935 -21.3505
rfingers 7.12502
rthumb 4.70469 -51.2782
lclavicle 3.21534e-014 3.81667e-014
lhumerus -50.4827 -2.16991 75.3931
lradius 18.4066
lwrist 32.7616
lhand -27.9667 1.34715
lfingers 7.12502
lthumb -1.35375 31.3226
rfemur -43.5078 12.6889 23.6408
rtibia 44.64
rfoot -14.3699 -8.68799
rtoes -5.74103
lfemur -36.4972 -4.00801 -21.1083
ltibia 67.0792
lfoot -0.129785 -8.5743
ltoes -32.0658
305
root -9.27644 15.8754 -13.0301 -161.635 3.68572 178.354
lowerback -12.917 -2.52787 6.59594
upperback -6.06094 -3.21394 5.10613
thorax 0.735763 -1.2217 1.21319
lowerneck -18.1041 -6.58477 1.58146
upperneck 28.7829 -8.19863 -2.13318
head 12.3398 -3.28884 -2.25378
rclavicle 5.98342e-014 9.54166e-015
rhumerus -36.5252 13.9211 -82.556
rradius 31.459
rwrist -3.44144
rhand -22.0787 -20.4618
rfingers 7.12502
rthumb 4.3328 -50.3975
lclavicle 5.98342e-014 9.54166e-015
lhumerus -51.3619 0.184522 72.2708
lradius 16.4052
lwrist 31.5607
lhand -27.2947 2.24849
lfingers 7.12502
lthumb -0.704742 32.2271
rfemur -42.7749 13.2881 23.6714
rtibia 44.4179
rfoot -14.6786 -8.59255
rtoes -5.84678
lfemur -37.9674 -3.72389 -21.0452
ltibia 67.6763
lfoot -0.891834 -7.26218
ltoes -31.0251
306
root -9.2642 15.8889 -13.1839 -161.636 4.5304 178.353
lowerback -12.7692 -2.37704 6.63451
upperback -6.02009 -3.02127 5.08334
thorax 0.700679 -1.13401 1.196
lowerneck -18.1723 -6.68753 1.4372
upperneck 28.9196 -8.31162 -2.09185
head 12.4157 -3.34226 -2.23942
rclavicle -3.69243e-014 8.11041e-014
rhumerus -36.0057 15.4569 -83.8387
rradius 33.6889
rwrist -4.86505
rhand -22.226 -19.5721
rfingers 7.12502
rthumb 4.19054 -49.5107
lclavicle -3.69243e-014 8.11041e-014
lhumerus -52.4278 2.52642 68.8638
lradius 14.9453
lwrist 29.712
lhand -26.8733 3.15686
lfingers 7.12502
lthumb -0.297715 33.1364
rfemur -42.0678 13.9467 23.6182
rtibia 44.2234
rfoot -14.9849 -8.49368
rtoes -5.95143
lfemur -39.3293 -3.44417 -21.0281
ltibia 67.9983
lfoot -1.65105 -5.99388
ltoes -30.133
307
root -9.25098 15.903 -13.3374 -161.627 5.42527 178.297
lowerback -12.627 -2.21182 6.57017
upperback -5.96885 -2.80489 5.03206
thorax 0.685943 -1.0351 1.20775
lowerneck -18.2234 -6.78999 1.29724
upperneck 28.9757 -8.43699 -2.03408
head 12.4567 -3.40428 -2.21886
rclavicle -2.13197e-014 6.67916e-014
rhumerus -35.4765 16.8888 -84.9923
rradius 35.9593
rwrist -6.3584
rhand -22.1045 -18.774
rfingers 7.12502
rthumb 4.30785 -48.7102
lclavicle -2.13197e-014 6.67916e-014
lhumerus -53.7131 4.43375 65.6377
lradius 14.1464
lwrist 27.7742
lhand -26.7611 4.01295
lfingers 7.12502
lthumb -0.189371 33.9926
rfemur -41.398 14.649 23.4851
rtibia 44.0572
rfoot -15.2839 -8.40155
rtoes -6.03243
lfemur -40.6023 -3.18959 -21.0462
ltibia 68.0539
lfoot -2.43495 -4.74321
ltoes -29.4149
308
root -9.23658 15.9167 -13.4904 -161.618 6.35965 178.183
lowerback -12.4774 -2.03594 6.40065
upperback -5.91636 -2.56693 4.95053
thorax 0.673854 -0.926125 1.24834
lowerneck -18.2219 -6.89415 1.14273
upperneck 28.9384 -8.57657 -1.93661
head 12.4524 -3.4748 -2.17854
rclavicle -1.88845e-014 -2.8625e-014
rhumerus -34.9521 18.2074 -86.0273
rradius 38.2536
rwrist -7.874
rhand -21.7626 -18.0268
rfingers 7.12502
rthumb 4.63803 -47.956
lclavicle -1.88845e-014 -2.8625e-014
lhumerus -55.1647 5.49044 63.1493
lradius 14.0157
lwrist 26.4058
lhand -26.9047 4.66616
lfingers 7.12502
lthumb -0.328009 34.6457
rfemur -40.7666 15.3966 23.2688
rtibia 43.9162
rfoot -15.5574 -8.32738
rtoes -6.075
lfemur -41.7903 -2.96705 -21.0975
ltibia 67.855
lfoot -3.2457 -3.50855
ltoes -28.9121
309
root -9.22177 15.9303 -13.6435 -161.599 7.30561 178.035
lowerback -12.3375 -1.85064 6.1699
upperback -5.85776 -2.31425 4.84863
thorax 0.675435 -0.809885 1.30263
lowerneck -18.2357 -7.00293 0.9959
upperneck 28.8606 -8.72833 -1.84543
head 12.4345 -3.55408 -2.14355
rclavicle -1.89839e-014 4.45278e-014
rhumerus -34.4125 19.4214 -86.9384
rradius 40.5467
rwrist -9.35868
rhand -21.2077 -17.3764
rfingers 7.12502
rthumb 5.17385 -47.2932
lclavicle -1.89839e-014 4.45278e-014
lhumerus -56.6264 5.83024 61.4258
lradius 14.2928
lwrist 25.5677
lhand -27.1784 4.90456
lfingers 7.12502
lthumb -0.592364 34.8835
rfemur -40.1666 16.1612 23.0019
rtibia 43.7893
rfoot -15.8141 -8.26554
rtoes -6.11281
lfemur -42.911 -2.79668 -21.149
ltibia 67.421
lfoot -4.08253 -2.28876
ltoes -28.7142
310
root -9.20658 15.9432 -13.7964 -161.58 8.24282 177.876
lowerback -12.199 -1.66281 5.90045
upperback -5.79613 -2.05568 4.74032
thorax 0.681303 -0.690336 1.37213
lowerneck -18.2459 -7.11626 0.82777
upperneck 28.7497 -8.88576 -1.74212
head 12.4049 -3.63889 -2.10065
rclavicle -1.19271e-014 3.18055e-015
rhumerus -33.872 20.5518 -87.7323
rradius 42.8428
rwrist -10.7864
rhand -20.4868 -16.9231
rfingers 7.12502
rthumb 5.86985 -46.8218
lclavicle -1.19271e-014 3.18055e-015
lhumerus -58.0442 5.60868 60.4098
lradius 14.8148
lwrist 25.2295
lhand -27.451 4.65116
lfingers 7.12502
lthumb -0.855684 34.6292
rfemur -39.5811 16.9405 22.7139
rtibia 43.663
rfoot -16.0495 -8.22917
rtoes -6.147
lfemur -43.9709 -2.68661 -21.1684
ltibia 66.7698
lfoot -4.84298 -1.13698
ltoes -28.5336
311
root -9.19162 15.9554 -13.9487 -161.55 9.15786 177.723
lowerback -12.0644 -1.4714 5.62491
upperback -5.73274 -1.79193 4.63187
thorax 0.6897 -0.567659 1.44525
lowerneck -18.2737 -7.23776 0.62237
upperneck 28.6275 -9.04997 -1.62198
head 12.3781 -3.72941 -2.04741
rclavicle 8.34896e-015 4.29375e-014
rhumerus -33.3305 21.6038 -88.4092
rradius 45.1356
rwrist -12.1446
rhand -19.6564 -16.6363
rfingers 7.12502
rthumb 6.67153 -46.5112
lclavicle 8.34896e-015 4.29375e-014
lhumerus -59.3811 5.04877 59.8987
lradius 15.4469
lwrist 25.2441
lhand -27.5643 4.06951
lfingers 7.12502
lthumb -0.965089 34.0471
rfemur -39.0064 17.7096 22.4278
rtibia 43.5214
rfoot -16.2724 -8.19998
rtoes -6.18614
lfemur -44.9785 -2.64696 -21.1343
ltibia 65.9143
lfoot -5.52439 -0.0475057
ltoes -28.4157
